<svg width="40" height="40" viewBox="0 0 40 40" fill="none" xmlns="http://www.w3.org/2000/svg">
<path fill-rule="evenodd" clip-rule="evenodd" d="M3.09478 26.7334H0.83778C0.0929007 26.7334 -0.280131 25.832 0.246531 25.3049L4.91668 20.6308C5.24323 20.304 5.77261 20.304 6.0991 20.6308L10.7692 25.3049C11.296 25.832 10.9229 26.7334 10.1781 26.7334H7.72932C9.14349 30.5224 13.6642 32.7734 17.7705 33.2893V20.039H14.1474C13.6857 20.039 13.3114 19.6644 13.3114 19.2023V16.4129C13.3114 15.9508 13.6857 15.5762 14.1474 15.5762H17.7705V15.1947C15.1728 14.2756 13.3114 11.7965 13.3114 8.88181C13.3114 5.15285 16.3577 2.13594 20.0955 2.18817C23.7349 2.23893 26.689 5.23981 26.6886 8.88265C26.6882 11.797 24.827 14.2758 22.2295 15.1947V15.5762H25.8525C26.3142 15.5762 26.6886 15.9508 26.6886 16.4129V19.2023C26.6886 19.6644 26.3142 20.039 25.8525 20.039H22.2295V33.2893C26.351 32.7714 30.857 30.5211 32.2706 26.7334H29.8219C29.077 26.7334 28.704 25.8321 29.2307 25.3049L33.9008 20.6308C34.2274 20.304 34.7568 20.304 35.0833 20.6308L39.7534 25.3049C40.2802 25.832 39.9071 26.7334 39.1622 26.7334H36.9052C35.3876 33.8894 27.4014 37.8906 20 37.8906C12.6107 37.8906 4.61415 33.8974 3.09478 26.7334ZM22.2295 8.88151C22.2295 7.65108 21.2293 6.65006 20 6.65006C18.7706 6.65006 17.7704 7.65108 17.7704 8.88151C17.7704 10.1119 18.7706 11.113 20 11.113C21.2293 11.113 22.2295 10.1119 22.2295 8.88151Z" fill="black"/>
<mask id="mask0_0_2643" style="mask-type:luminance" maskUnits="userSpaceOnUse" x="0" y="2" width="40" height="36">
<path fill-rule="evenodd" clip-rule="evenodd" d="M3.09478 26.7334H0.83778C0.0929007 26.7334 -0.280131 25.832 0.246531 25.3049L4.91668 20.6308C5.24323 20.304 5.77261 20.304 6.0991 20.6308L10.7692 25.3049C11.296 25.832 10.9229 26.7334 10.1781 26.7334H7.72932C9.14349 30.5224 13.6642 32.7734 17.7705 33.2893V20.039H14.1474C13.6857 20.039 13.3114 19.6644 13.3114 19.2023V16.4129C13.3114 15.9508 13.6857 15.5762 14.1474 15.5762H17.7705V15.1947C15.1728 14.2756 13.3114 11.7965 13.3114 8.88181C13.3114 5.15285 16.3577 2.13594 20.0955 2.18817C23.7349 2.23893 26.689 5.23981 26.6886 8.88265C26.6882 11.797 24.827 14.2758 22.2295 15.1947V15.5762H25.8525C26.3142 15.5762 26.6886 15.9508 26.6886 16.4129V19.2023C26.6886 19.6644 26.3142 20.039 25.8525 20.039H22.2295V33.2893C26.351 32.7714 30.857 30.5211 32.2706 26.7334H29.8219C29.077 26.7334 28.704 25.8321 29.2307 25.3049L33.9008 20.6308C34.2274 20.304 34.7568 20.304 35.0833 20.6308L39.7534 25.3049C40.2802 25.832 39.9071 26.7334 39.1622 26.7334H36.9052C35.3876 33.8894 27.4014 37.8906 20 37.8906C12.6107 37.8906 4.61415 33.8974 3.09478 26.7334ZM22.2295 8.88151C22.2295 7.65108 21.2293 6.65006 20 6.65006C18.7706 6.65006 17.7704 7.65108 17.7704 8.88151C17.7704 10.1119 18.7706 11.113 20 11.113C21.2293 11.113 22.2295 10.1119 22.2295 8.88151Z" fill="white"/>
</mask>
<g mask="url(#mask0_0_2643)">
<rect width="40" height="40" fill="#FCFCFC"/>
</g>
</svg>
