<svg width="40" height="40" viewBox="0 0 40 40" fill="none" xmlns="http://www.w3.org/2000/svg">
<path fill-rule="evenodd" clip-rule="evenodd" d="M34.7794 13.125H39.0618C39.7017 13.125 40.1535 13.7519 39.9512 14.359L39.3262 16.234C39.1986 16.6168 38.8403 16.875 38.4368 16.875H36.1856L36.1897 16.8859C37.717 17.7416 38.75 19.3748 38.75 21.25V25C38.75 26.2675 38.2774 27.4241 37.5 28.3054V33.125C37.5 34.1605 36.6605 35 35.625 35H31.875C30.8395 35 30 34.1605 30 33.125V30H10V33.125C10 34.1605 9.16055 35 8.125 35H4.375C3.33945 35 2.5 34.1605 2.5 33.125V28.3054C1.72258 27.4241 1.25 26.2676 1.25 25V21.25C1.25 19.3748 2.28297 17.7416 3.81031 16.8859L3.81437 16.875H1.5632C1.15969 16.875 0.80144 16.6168 0.673828 16.234L0.0488275 14.359C-0.153516 13.7519 0.298281 13.125 0.938203 13.125H5.22062L5.83422 11.4887C6.55234 9.57367 7.82047 7.9457 9.50156 6.7807C11.1826 5.61578 13.1522 5 15.1975 5H24.8025C26.8477 5 28.8174 5.6157 30.4984 6.7807C32.1795 7.9457 33.4477 9.57367 34.1658 11.4887L34.7794 13.125ZM15.1977 10C13.1252 10 11.2438 11.3038 10.5161 13.2444L9.38895 16.25H30.6114L29.4843 13.2444C28.7566 11.3038 26.8752 10 24.8027 10H15.1977ZM6.87499 25.625C5.49429 25.625 4.37499 24.5057 4.37499 23.125C4.37499 21.7443 5.49429 20.625 6.87499 20.625C8.2557 20.625 10.625 22.9943 10.625 24.375C10.625 25.65 8.60448 25.6362 7.20787 25.6266C7.09212 25.6258 6.98066 25.625 6.87499 25.625ZM32.7921 25.6266C32.9079 25.6258 33.0193 25.625 33.125 25.625C34.5057 25.625 35.625 24.5057 35.625 23.125C35.625 21.7443 34.5057 20.625 33.125 20.625C31.7443 20.625 29.375 22.9943 29.375 24.375C29.375 25.65 31.3955 25.6362 32.7921 25.6266Z" fill="black"/>
<mask id="mask0_0_2685" style="mask-type:luminance" maskUnits="userSpaceOnUse" x="0" y="5" width="40" height="30">
<path fill-rule="evenodd" clip-rule="evenodd" d="M34.7794 13.125H39.0618C39.7017 13.125 40.1535 13.7519 39.9512 14.359L39.3262 16.234C39.1986 16.6168 38.8403 16.875 38.4368 16.875H36.1856L36.1897 16.8859C37.717 17.7416 38.75 19.3748 38.75 21.25V25C38.75 26.2675 38.2774 27.4241 37.5 28.3054V33.125C37.5 34.1605 36.6605 35 35.625 35H31.875C30.8395 35 30 34.1605 30 33.125V30H10V33.125C10 34.1605 9.16055 35 8.125 35H4.375C3.33945 35 2.5 34.1605 2.5 33.125V28.3054C1.72258 27.4241 1.25 26.2676 1.25 25V21.25C1.25 19.3748 2.28297 17.7416 3.81031 16.8859L3.81437 16.875H1.5632C1.15969 16.875 0.80144 16.6168 0.673828 16.234L0.0488275 14.359C-0.153516 13.7519 0.298281 13.125 0.938203 13.125H5.22062L5.83422 11.4887C6.55234 9.57367 7.82047 7.9457 9.50156 6.7807C11.1826 5.61578 13.1522 5 15.1975 5H24.8025C26.8477 5 28.8174 5.6157 30.4984 6.7807C32.1795 7.9457 33.4477 9.57367 34.1658 11.4887L34.7794 13.125ZM15.1977 10C13.1252 10 11.2438 11.3038 10.5161 13.2444L9.38895 16.25H30.6114L29.4843 13.2444C28.7566 11.3038 26.8752 10 24.8027 10H15.1977ZM6.87499 25.625C5.49429 25.625 4.37499 24.5057 4.37499 23.125C4.37499 21.7443 5.49429 20.625 6.87499 20.625C8.2557 20.625 10.625 22.9943 10.625 24.375C10.625 25.65 8.60448 25.6362 7.20787 25.6266C7.09212 25.6258 6.98066 25.625 6.87499 25.625ZM32.7921 25.6266C32.9079 25.6258 33.0193 25.625 33.125 25.625C34.5057 25.625 35.625 24.5057 35.625 23.125C35.625 21.7443 34.5057 20.625 33.125 20.625C31.7443 20.625 29.375 22.9943 29.375 24.375C29.375 25.65 31.3955 25.6362 32.7921 25.6266Z" fill="white"/>
</mask>
<g mask="url(#mask0_0_2685)">
<rect width="40" height="40" fill="#FCFCFC"/>
</g>
</svg>
