<svg width="40" height="40" viewBox="0 0 40 40" fill="none" xmlns="http://www.w3.org/2000/svg">
<path fill-rule="evenodd" clip-rule="evenodd" d="M27.4993 16.7969L36.6555 31.5234C38.9446 35.1953 36.3118 40 31.9602 40H8.03833C3.69458 40 1.05395 35.2031 3.34302 31.5234L12.4993 16.7969V5H11.8743C10.8352 5 9.99927 4.16406 9.99927 3.125V1.875C9.99927 0.835938 10.8352 0 11.8743 0H28.1243C29.1633 0 29.9993 0.835938 29.9993 1.875V3.125C29.9993 4.16406 29.1633 5 28.1243 5H27.4993V16.7969ZM17.0383 18.9375L13.2727 25H26.7102L22.9446 18.9375C22.6633 18.5312 22.4915 18.0391 22.4915 17.5V5H17.4915V17.5C17.4915 18.0312 17.3274 18.5312 17.0383 18.9375Z" fill="black"/>
<mask id="mask0_0_2662" style="mask-type:luminance" maskUnits="userSpaceOnUse" x="2" y="0" width="36" height="40">
<path fill-rule="evenodd" clip-rule="evenodd" d="M27.4993 16.7969L36.6555 31.5234C38.9446 35.1953 36.3118 40 31.9602 40H8.03833C3.69458 40 1.05395 35.2031 3.34302 31.5234L12.4993 16.7969V5H11.8743C10.8352 5 9.99927 4.16406 9.99927 3.125V1.875C9.99927 0.835938 10.8352 0 11.8743 0H28.1243C29.1633 0 29.9993 0.835938 29.9993 1.875V3.125C29.9993 4.16406 29.1633 5 28.1243 5H27.4993V16.7969ZM17.0383 18.9375L13.2727 25H26.7102L22.9446 18.9375C22.6633 18.5312 22.4915 18.0391 22.4915 17.5V5H17.4915V17.5C17.4915 18.0312 17.3274 18.5312 17.0383 18.9375Z" fill="white"/>
</mask>
<g mask="url(#mask0_0_2662)">
<rect width="40" height="40" fill="#FCFCFC"/>
</g>
</svg>
