<svg width="40" height="40" viewBox="0 0 40 40" fill="none" xmlns="http://www.w3.org/2000/svg">
<path fill-rule="evenodd" clip-rule="evenodd" d="M39.375 20C39.375 30.7005 30.7005 39.375 20 39.375C9.29945 39.375 0.625 30.7005 0.625 20C0.625 9.29945 9.29945 0.625 20 0.625C30.7005 0.625 39.375 9.29945 39.375 20ZM16.2421 25.4349L13.9066 18.3011L20.0001 13.8849L26.0935 18.3011L23.7793 25.4349H16.2421ZM3.75 19.9998L3.75016 19.985L5.85984 21.8257L10.9554 17.0698L9.63906 10.2121L6.84141 10.4607C8.81109 7.75582 11.6303 5.61316 15.0116 4.52707L13.9066 7.1123L20 10.4881L26.0936 7.1123L24.9887 4.52707C28.369 5.61285 31.1888 7.75527 33.1588 10.4607L30.3823 10.2121L29.0447 17.0698L34.1402 21.8257L36.2498 19.985L36.25 19.9998C36.25 23.492 35.1551 26.8156 33.129 29.58L32.5054 26.8364L25.584 27.6857L22.6328 34.0126L25.053 35.4522C21.7908 36.5152 18.2153 36.5171 14.9472 35.4522L17.3673 34.0126L14.4162 27.6857L7.49469 26.8364L6.87109 29.58C4.84492 26.8156 3.75 23.492 3.75 19.9998Z" fill="black"/>
<mask id="mask0_0_2687" style="mask-type:luminance" maskUnits="userSpaceOnUse" x="0" y="0" width="40" height="40">
<path fill-rule="evenodd" clip-rule="evenodd" d="M39.375 20C39.375 30.7005 30.7005 39.375 20 39.375C9.29945 39.375 0.625 30.7005 0.625 20C0.625 9.29945 9.29945 0.625 20 0.625C30.7005 0.625 39.375 9.29945 39.375 20ZM16.2421 25.4349L13.9066 18.3011L20.0001 13.8849L26.0935 18.3011L23.7793 25.4349H16.2421ZM3.75 19.9998L3.75016 19.985L5.85984 21.8257L10.9554 17.0698L9.63906 10.2121L6.84141 10.4607C8.81109 7.75582 11.6303 5.61316 15.0116 4.52707L13.9066 7.1123L20 10.4881L26.0936 7.1123L24.9887 4.52707C28.369 5.61285 31.1888 7.75527 33.1588 10.4607L30.3823 10.2121L29.0447 17.0698L34.1402 21.8257L36.2498 19.985L36.25 19.9998C36.25 23.492 35.1551 26.8156 33.129 29.58L32.5054 26.8364L25.584 27.6857L22.6328 34.0126L25.053 35.4522C21.7908 36.5152 18.2153 36.5171 14.9472 35.4522L17.3673 34.0126L14.4162 27.6857L7.49469 26.8364L6.87109 29.58C4.84492 26.8156 3.75 23.492 3.75 19.9998Z" fill="white"/>
</mask>
<g mask="url(#mask0_0_2687)">
<rect width="40" height="40" fill="#FCFCFC"/>
</g>
</svg>
