<svg width="40" height="40" viewBox="0 0 40 40" fill="none" xmlns="http://www.w3.org/2000/svg">
<path d="M0.84938 24.7332C2.03211 23.4765 4.00985 23.4165 5.2668 24.5994L10 29.0541V22.8506L6.95274 9.44257C6.57024 7.7596 7.62446 6.08523 9.30743 5.70273C10.9909 5.32038 12.6648 6.37452 13.0473 8.05749L15.7615 20H16.5297L12.8138 3.82546C12.4273 2.14335 13.4777 0.466554 15.1597 0.0801481C16.8419 -0.306571 18.5186 0.744054 18.905 2.42609L22.9425 20H24.1226L27.9058 4.86702C28.3243 3.19265 30.021 2.17468 31.6954 2.59327C33.3698 3.01187 34.3878 4.70851 33.9691 6.38288L30.5649 20H31.4306L33.8343 9.90116C34.2341 8.22218 35.9191 7.18491 37.5981 7.58499C39.2771 7.98476 40.3141 9.66984 39.9143 11.3488L37.079 23.2603C36.9435 23.8294 36.875 24.4124 36.875 24.9974V28.2866C36.875 29.0084 36.7708 29.7264 36.5656 30.4184L34.5208 37.3159C34.0488 38.908 32.586 40 30.9255 40H13.9978C13.0426 40 12.1233 39.6355 11.4277 38.9808L0.983209 29.1506C-0.273588 27.9677 -0.333432 25.99 0.84938 24.7332Z" fill="black"/>
<mask id="mask0_0_2668" style="mask-type:luminance" maskUnits="userSpaceOnUse" x="0" y="0" width="40" height="40">
<path d="M0.84938 24.7332C2.03211 23.4765 4.00985 23.4165 5.2668 24.5994L10 29.0541V22.8506L6.95274 9.44257C6.57024 7.7596 7.62446 6.08523 9.30743 5.70273C10.9909 5.32038 12.6648 6.37452 13.0473 8.05749L15.7615 20H16.5297L12.8138 3.82546C12.4273 2.14335 13.4777 0.466554 15.1597 0.0801481C16.8419 -0.306571 18.5186 0.744054 18.905 2.42609L22.9425 20H24.1226L27.9058 4.86702C28.3243 3.19265 30.021 2.17468 31.6954 2.59327C33.3698 3.01187 34.3878 4.70851 33.9691 6.38288L30.5649 20H31.4306L33.8343 9.90116C34.2341 8.22218 35.9191 7.18491 37.5981 7.58499C39.2771 7.98476 40.3141 9.66984 39.9143 11.3488L37.079 23.2603C36.9435 23.8294 36.875 24.4124 36.875 24.9974V28.2866C36.875 29.0084 36.7708 29.7264 36.5656 30.4184L34.5208 37.3159C34.0488 38.908 32.586 40 30.9255 40H13.9978C13.0426 40 12.1233 39.6355 11.4277 38.9808L0.983209 29.1506C-0.273588 27.9677 -0.333432 25.99 0.84938 24.7332Z" fill="white"/>
</mask>
<g mask="url(#mask0_0_2668)">
<rect width="40" height="40" fill="#FCFCFC"/>
</g>
</svg>
