<svg width="40" height="40" viewBox="0 0 40 40" fill="none" xmlns="http://www.w3.org/2000/svg">
<path d="M34.062 20H30.3105C29.8156 20 29.375 20.3838 29.375 20.8786C29.375 28.75 22.9827 32.5 16.25 32.5V20.061L26.7659 17.7241C27.1948 17.6288 27.5 17.2484 27.5 16.809V13.6077C27.5 13.008 26.9446 12.5624 26.3591 12.6926L16.25 14.939V12.5609L26.7659 10.2241C27.1948 10.1287 27.5 9.74831 27.5 9.30891V6.10773C27.5 5.50797 26.9446 5.06242 26.3591 5.19258L16.25 7.43898V3.4375C16.25 2.91977 15.8302 2.5 15.3125 2.5H10.9375C10.4198 2.5 10 2.91977 10 3.4375V8.82789L5.73414 9.77586C5.3052 9.87117 5.00001 10.2516 5 10.691V13.8923C5 14.492 5.55539 14.9376 6.14086 14.8074L10 13.9498V16.3279L5.73414 17.2759C5.3052 17.3712 5.00001 17.7516 5 18.191V21.3923C5 21.992 5.55539 22.4376 6.14086 22.3074L10 21.4498V36.5625C10 37.0802 10.4198 37.5 10.9375 37.5H17.1549C27.6308 37.5 34.5967 31.4192 34.9993 20.9694C35.0197 20.4395 34.5922 20 34.062 20Z" fill="black"/>
<mask id="mask0_0_2683" style="mask-type:luminance" maskUnits="userSpaceOnUse" x="5" y="2" width="30" height="36">
<path d="M34.062 20H30.3105C29.8156 20 29.375 20.3838 29.375 20.8786C29.375 28.75 22.9827 32.5 16.25 32.5V20.061L26.7659 17.7241C27.1948 17.6288 27.5 17.2484 27.5 16.809V13.6077C27.5 13.008 26.9446 12.5624 26.3591 12.6926L16.25 14.939V12.5609L26.7659 10.2241C27.1948 10.1287 27.5 9.74831 27.5 9.30891V6.10773C27.5 5.50797 26.9446 5.06242 26.3591 5.19258L16.25 7.43898V3.4375C16.25 2.91977 15.8302 2.5 15.3125 2.5H10.9375C10.4198 2.5 10 2.91977 10 3.4375V8.82789L5.73414 9.77586C5.3052 9.87117 5.00001 10.2516 5 10.691V13.8923C5 14.492 5.55539 14.9376 6.14086 14.8074L10 13.9498V16.3279L5.73414 17.2759C5.3052 17.3712 5.00001 17.7516 5 18.191V21.3923C5 21.992 5.55539 22.4376 6.14086 22.3074L10 21.4498V36.5625C10 37.0802 10.4198 37.5 10.9375 37.5H17.1549C27.6308 37.5 34.5967 31.4192 34.9993 20.9694C35.0197 20.4395 34.5922 20 34.062 20Z" fill="white"/>
</mask>
<g mask="url(#mask0_0_2683)">
<rect width="40" height="40" fill="#FCFCFC"/>
</g>
</svg>
