<svg width="40" height="40" viewBox="0 0 40 40" fill="none" xmlns="http://www.w3.org/2000/svg">
<path fill-rule="evenodd" clip-rule="evenodd" d="M37.3316 32.5957C33.5923 37.2028 27.9497 40 21.7969 40C10.7481 40 1.79688 31.0438 1.79688 20C1.79688 8.95117 10.7531 0 21.7969 0C23.0216 0.000199712 24.2437 0.112043 25.448 0.334141C28.8872 0.969375 29.6486 5.55828 26.6216 7.28094C23.3893 9.12031 21.3534 12.5475 21.3534 16.3306C21.3534 22.8559 27.2849 27.774 33.7184 26.5487C37.1317 25.8987 39.5402 29.8745 37.3316 32.5957ZM24.7669 4.02172C23.8038 3.84383 22.8113 3.75 21.7969 3.75C12.8223 3.75 5.54688 11.0254 5.54688 20C5.54688 28.9746 12.8223 36.25 21.7969 36.25C26.893 36.25 31.4405 33.9034 34.4199 30.2325C25.7003 31.8931 17.6034 25.225 17.6034 16.3306C17.6034 11.0562 20.4888 6.45633 24.7669 4.02172Z" fill="black"/>
<mask id="mask0_0_2664" style="mask-type:luminance" maskUnits="userSpaceOnUse" x="1" y="0" width="38" height="40">
<path fill-rule="evenodd" clip-rule="evenodd" d="M37.3316 32.5957C33.5923 37.2028 27.9497 40 21.7969 40C10.7481 40 1.79688 31.0438 1.79688 20C1.79688 8.95117 10.7531 0 21.7969 0C23.0216 0.000199712 24.2437 0.112043 25.448 0.334141C28.8872 0.969375 29.6486 5.55828 26.6216 7.28094C23.3893 9.12031 21.3534 12.5475 21.3534 16.3306C21.3534 22.8559 27.2849 27.774 33.7184 26.5487C37.1317 25.8987 39.5402 29.8745 37.3316 32.5957ZM24.7669 4.02172C23.8038 3.84383 22.8113 3.75 21.7969 3.75C12.8223 3.75 5.54688 11.0254 5.54688 20C5.54688 28.9746 12.8223 36.25 21.7969 36.25C26.893 36.25 31.4405 33.9034 34.4199 30.2325C25.7003 31.8931 17.6034 25.225 17.6034 16.3306C17.6034 11.0562 20.4888 6.45633 24.7669 4.02172Z" fill="white"/>
</mask>
<g mask="url(#mask0_0_2664)">
<rect width="40" height="40" fill="#FCFCFC"/>
</g>
</svg>
