<svg width="40" height="40" viewBox="0 0 40 40" fill="none" xmlns="http://www.w3.org/2000/svg">
<path d="M37.2513 23.5655C37.4811 23.1639 37.5551 22.6918 37.4592 22.2391C37.2463 21.2262 36.2608 20.5794 35.2581 20.7945L28.4294 22.7512L23.125 20L28.4294 17.2488L35.2581 19.2055C36.2608 19.4206 37.2463 18.7738 37.4592 17.7609C37.672 16.7479 37.0317 15.7524 36.0291 15.5373L32.3199 14.9798L36.4666 12.5613C37.3543 12.0436 37.6585 10.8968 37.146 10C36.6334 9.1032 35.4982 8.79594 34.6105 9.31367L30.4638 11.7321L31.8405 8.20836C32.1574 7.22352 31.6242 6.1657 30.6493 5.84547C29.6745 5.52523 28.6272 6.06398 28.3103 7.04875L26.5734 14.0011L21.8562 16.7523V11.25L26.948 6.2543C27.6338 5.48461 27.572 4.29906 26.81 3.60633C26.0481 2.91359 24.8745 2.97602 24.1888 3.7457L21.8562 6.71187V1.875C21.8562 0.839453 21.0252 0 20.0001 0C18.975 0 18.144 0.839453 18.144 1.875V6.71187L15.8114 3.7457C15.1256 2.97602 13.9521 2.91352 13.1902 3.60633C12.4282 4.29906 12.3665 5.48461 13.0522 6.2543L18.1439 11.25V16.7524L13.4267 14.0013L11.6899 7.04891C11.3729 6.06414 10.3256 5.52539 9.3508 5.84562C8.37595 6.16586 7.84267 7.22375 8.15963 8.20852L9.53619 11.7323L5.38955 9.31383C4.50181 8.79609 3.36666 9.10336 2.85408 10.0002C2.3415 10.897 2.64572 12.0437 3.53345 12.5615L7.68009 14.9799L3.97095 15.5375C2.96822 15.7527 2.32791 16.748 2.54088 17.761C2.75377 18.7739 3.73923 19.4208 4.74197 19.2057L11.5706 17.249L16.875 20L11.5706 22.7512L4.74205 20.7945C3.73931 20.5795 2.75384 21.2262 2.54095 22.2392C2.32806 23.2523 2.9683 24.2477 3.97103 24.4627L7.68017 25.0203L3.53353 27.4388C2.6458 27.9565 2.34166 29.1032 2.85416 30C3.36666 30.8968 4.50189 31.2041 5.38963 30.6863L9.53627 28.2679L8.1597 31.7916C7.99635 32.2973 8.0537 32.8483 8.31767 33.3095C8.53884 33.6964 8.89705 34.0055 9.3508 34.1545C10.3256 34.4747 11.3729 33.9359 11.6899 32.9512L13.4267 25.9988L18.1439 23.2477V28.75L13.0521 33.7457C12.3663 34.5154 12.4281 35.7009 13.1901 36.3937C13.9521 37.0865 15.1256 37.024 15.8113 36.2543L18.1439 33.2881V38.125C18.1439 39.1605 18.9749 40 20 40C21.0251 40 21.8561 39.1605 21.8561 38.125V33.2881L24.1887 36.2543C24.5387 36.6493 25.0412 36.8753 25.5689 36.875C26.0282 36.8752 26.4709 36.7035 26.8099 36.3937C27.5719 35.7009 27.6337 34.5154 26.9479 33.7457L21.8561 28.75V23.2476L26.5733 25.9987L28.3102 32.9511C28.6271 33.9359 29.6744 34.4746 30.6492 34.1544C31.6242 33.8341 32.1574 32.7762 31.8404 31.7915L30.4638 28.2677L34.6104 30.6862C35.4981 31.2039 36.6333 30.8966 37.1459 29.9998C37.6585 29.103 37.3542 27.9563 36.4665 27.4385L32.3199 25.0201L36.029 24.4625C36.5649 24.3477 36.9973 24.0099 37.2513 23.5655Z" fill="black"/>
<mask id="mask0_0_2670" style="mask-type:luminance" maskUnits="userSpaceOnUse" x="2" y="0" width="36" height="40">
<path d="M37.2513 23.5655C37.4811 23.1639 37.5551 22.6918 37.4592 22.2391C37.2463 21.2262 36.2608 20.5794 35.2581 20.7945L28.4294 22.7512L23.125 20L28.4294 17.2488L35.2581 19.2055C36.2608 19.4206 37.2463 18.7738 37.4592 17.7609C37.672 16.7479 37.0317 15.7524 36.0291 15.5373L32.3199 14.9798L36.4666 12.5613C37.3543 12.0436 37.6585 10.8968 37.146 10C36.6334 9.1032 35.4982 8.79594 34.6105 9.31367L30.4638 11.7321L31.8405 8.20836C32.1574 7.22352 31.6242 6.1657 30.6493 5.84547C29.6745 5.52523 28.6272 6.06398 28.3103 7.04875L26.5734 14.0011L21.8562 16.7523V11.25L26.948 6.2543C27.6338 5.48461 27.572 4.29906 26.81 3.60633C26.0481 2.91359 24.8745 2.97602 24.1888 3.7457L21.8562 6.71187V1.875C21.8562 0.839453 21.0252 0 20.0001 0C18.975 0 18.144 0.839453 18.144 1.875V6.71187L15.8114 3.7457C15.1256 2.97602 13.9521 2.91352 13.1902 3.60633C12.4282 4.29906 12.3665 5.48461 13.0522 6.2543L18.1439 11.25V16.7524L13.4267 14.0013L11.6899 7.04891C11.3729 6.06414 10.3256 5.52539 9.3508 5.84562C8.37595 6.16586 7.84267 7.22375 8.15963 8.20852L9.53619 11.7323L5.38955 9.31383C4.50181 8.79609 3.36666 9.10336 2.85408 10.0002C2.3415 10.897 2.64572 12.0437 3.53345 12.5615L7.68009 14.9799L3.97095 15.5375C2.96822 15.7527 2.32791 16.748 2.54088 17.761C2.75377 18.7739 3.73923 19.4208 4.74197 19.2057L11.5706 17.249L16.875 20L11.5706 22.7512L4.74205 20.7945C3.73931 20.5795 2.75384 21.2262 2.54095 22.2392C2.32806 23.2523 2.9683 24.2477 3.97103 24.4627L7.68017 25.0203L3.53353 27.4388C2.6458 27.9565 2.34166 29.1032 2.85416 30C3.36666 30.8968 4.50189 31.2041 5.38963 30.6863L9.53627 28.2679L8.1597 31.7916C7.99635 32.2973 8.0537 32.8483 8.31767 33.3095C8.53884 33.6964 8.89705 34.0055 9.3508 34.1545C10.3256 34.4747 11.3729 33.9359 11.6899 32.9512L13.4267 25.9988L18.1439 23.2477V28.75L13.0521 33.7457C12.3663 34.5154 12.4281 35.7009 13.1901 36.3937C13.9521 37.0865 15.1256 37.024 15.8113 36.2543L18.1439 33.2881V38.125C18.1439 39.1605 18.9749 40 20 40C21.0251 40 21.8561 39.1605 21.8561 38.125V33.2881L24.1887 36.2543C24.5387 36.6493 25.0412 36.8753 25.5689 36.875C26.0282 36.8752 26.4709 36.7035 26.8099 36.3937C27.5719 35.7009 27.6337 34.5154 26.9479 33.7457L21.8561 28.75V23.2476L26.5733 25.9987L28.3102 32.9511C28.6271 33.9359 29.6744 34.4746 30.6492 34.1544C31.6242 33.8341 32.1574 32.7762 31.8404 31.7915L30.4638 28.2677L34.6104 30.6862C35.4981 31.2039 36.6333 30.8966 37.1459 29.9998C37.6585 29.103 37.3542 27.9563 36.4665 27.4385L32.3199 25.0201L36.029 24.4625C36.5649 24.3477 36.9973 24.0099 37.2513 23.5655Z" fill="white"/>
</mask>
<g mask="url(#mask0_0_2670)">
<rect width="40" height="40" fill="#FCFCFC"/>
</g>
</svg>
