<svg width="40" height="40" viewBox="0 0 40 40" fill="none" xmlns="http://www.w3.org/2000/svg">
<path fill-rule="evenodd" clip-rule="evenodd" d="M21.5103 0.987949L23.5037 5.8624C23.8329 6.66717 24.8062 6.98342 25.5454 6.52584L30.0233 3.75404C31.2334 3.00498 32.7426 4.10146 32.4041 5.48389L31.1518 10.5991C30.945 11.4437 31.5465 12.2716 32.4137 12.3359L37.6655 12.7255C39.0848 12.8308 39.6613 14.605 38.575 15.5244L34.5552 18.9265C33.8915 19.4883 33.8915 20.5116 34.5552 21.0733L38.5751 24.4755C39.6615 25.395 39.085 27.1691 37.6656 27.2744L32.4137 27.664C31.5466 27.7283 30.9451 28.5563 31.1519 29.4008L32.4042 34.5161C32.7426 35.8985 31.2334 36.995 30.0233 36.2459L25.5455 33.4741C24.8062 33.0165 23.8329 33.3327 23.5038 34.1376L21.5104 39.012C20.9716 40.3294 19.1061 40.3294 18.5674 39.012L16.574 34.1376C16.2448 33.3328 15.2715 33.0165 14.5322 33.4741L10.0544 36.2459C8.8442 36.995 7.33498 35.8985 7.67349 34.5161L8.92584 29.4008C9.13264 28.5563 8.53107 27.7283 7.66396 27.664L2.41209 27.2744C0.992791 27.1691 0.416306 25.395 1.50263 24.4755L5.5224 21.0734C6.18607 20.5117 6.18607 19.4883 5.5224 18.9266L1.50256 15.5244C0.41615 14.605 0.992635 12.8308 2.41201 12.7255L7.66388 12.3359C8.53099 12.2716 9.13256 11.4437 8.92576 10.5991L7.67342 5.48389C7.33498 4.10146 8.8442 3.00498 10.0543 3.75404L14.5322 6.52584C15.2715 6.9835 16.2447 6.66725 16.5739 5.8624L18.5673 0.987949C19.1061 -0.329316 20.9715 -0.329316 21.5103 0.987949ZM30.6639 19.9997C30.6639 14.1411 25.8975 9.37475 20.0389 9.37475C14.1803 9.37475 9.41393 14.1411 9.41393 19.9997C9.41393 25.8584 14.1803 30.6247 20.0389 30.6247C25.8975 30.6247 30.6639 25.8584 30.6639 19.9997ZM20.0389 28.1248C24.5191 28.1248 28.1639 24.4799 28.1639 19.9998C28.1639 15.5196 24.5191 11.8748 20.0389 11.8748C15.5588 11.8748 11.9139 15.5196 11.9139 19.9998C11.9139 24.4799 15.5588 28.1248 20.0389 28.1248Z" fill="black"/>
<mask id="mask0_0_2666" style="mask-type:luminance" maskUnits="userSpaceOnUse" x="0" y="0" width="40" height="40">
<path fill-rule="evenodd" clip-rule="evenodd" d="M21.5103 0.987949L23.5037 5.8624C23.8329 6.66717 24.8062 6.98342 25.5454 6.52584L30.0233 3.75404C31.2334 3.00498 32.7426 4.10146 32.4041 5.48389L31.1518 10.5991C30.945 11.4437 31.5465 12.2716 32.4137 12.3359L37.6655 12.7255C39.0848 12.8308 39.6613 14.605 38.575 15.5244L34.5552 18.9265C33.8915 19.4883 33.8915 20.5116 34.5552 21.0733L38.5751 24.4755C39.6615 25.395 39.085 27.1691 37.6656 27.2744L32.4137 27.664C31.5466 27.7283 30.9451 28.5563 31.1519 29.4008L32.4042 34.5161C32.7426 35.8985 31.2334 36.995 30.0233 36.2459L25.5455 33.4741C24.8062 33.0165 23.8329 33.3327 23.5038 34.1376L21.5104 39.012C20.9716 40.3294 19.1061 40.3294 18.5674 39.012L16.574 34.1376C16.2448 33.3328 15.2715 33.0165 14.5322 33.4741L10.0544 36.2459C8.8442 36.995 7.33498 35.8985 7.67349 34.5161L8.92584 29.4008C9.13264 28.5563 8.53107 27.7283 7.66396 27.664L2.41209 27.2744C0.992791 27.1691 0.416306 25.395 1.50263 24.4755L5.5224 21.0734C6.18607 20.5117 6.18607 19.4883 5.5224 18.9266L1.50256 15.5244C0.41615 14.605 0.992635 12.8308 2.41201 12.7255L7.66388 12.3359C8.53099 12.2716 9.13256 11.4437 8.92576 10.5991L7.67342 5.48389C7.33498 4.10146 8.8442 3.00498 10.0543 3.75404L14.5322 6.52584C15.2715 6.9835 16.2447 6.66725 16.5739 5.8624L18.5673 0.987949C19.1061 -0.329316 20.9715 -0.329316 21.5103 0.987949ZM30.6639 19.9997C30.6639 14.1411 25.8975 9.37475 20.0389 9.37475C14.1803 9.37475 9.41393 14.1411 9.41393 19.9997C9.41393 25.8584 14.1803 30.6247 20.0389 30.6247C25.8975 30.6247 30.6639 25.8584 30.6639 19.9997ZM20.0389 28.1248C24.5191 28.1248 28.1639 24.4799 28.1639 19.9998C28.1639 15.5196 24.5191 11.8748 20.0389 11.8748C15.5588 11.8748 11.9139 15.5196 11.9139 19.9998C11.9139 24.4799 15.5588 28.1248 20.0389 28.1248Z" fill="white"/>
</mask>
<g mask="url(#mask0_0_2666)">
<rect width="40" height="40" fill="#FCFCFC"/>
</g>
</svg>
