<?xml version="1.0" standalone="no"?>
<!DOCTYPE svg PUBLIC "-//W3C//DTD SVG 20010904//EN"
 "http://www.w3.org/TR/2001/REC-SVG-20010904/DTD/svg10.dtd">
<svg version="1.0" xmlns="http://www.w3.org/2000/svg"
 width="96.000000pt" height="96.000000pt" viewBox="0 0 96.000000 96.000000"
 preserveAspectRatio="xMidYMid meet">
<metadata>
Created by potrace 1.14, written by Peter Selinger 2001-2017
</metadata>
<g transform="translate(0.000000,96.000000) scale(0.100000,-0.100000)"
fill="#000000" stroke="none">
<path d="M735 891 c-44 -19 -70 -60 -70 -112 0 -42 5 -53 33 -81 27 -28 39
-33 78 -32 56 1 95 28 111 77 16 47 0 102 -37 128 -30 22 -88 32 -115 20z
m115 -66 c11 -14 7 -23 -30 -60 -24 -25 -48 -45 -52 -45 -5 0 -21 15 -37 32
-28 32 -28 33 -10 46 16 11 23 11 35 1 13 -10 20 -8 42 14 31 31 35 32 52 12z"/>
<path d="M180 482 l0 -358 33 -32 33 -32 267 0 267 0 0 285 c0 239 -2 285 -14
285 -8 0 -21 3 -30 6 -14 6 -16 -21 -16 -255 l0 -261 -240 0 -240 0 0 360 0
360 -30 0 -30 0 0 -358z"/>
<path d="M274 736 c-3 -7 -4 -33 -2 -57 3 -38 6 -44 28 -47 20 -3 23 -1 13 9
-16 17 -17 81 -1 97 9 9 7 12 -10 12 -13 0 -25 -6 -28 -14z"/>
<path d="M403 713 c-7 -2 -13 -15 -13 -28 0 -13 -7 -30 -15 -39 -40 -40 7
-106 75 -106 30 0 47 6 65 25 35 34 35 96 0 130 -23 24 -77 33 -112 18z"/>
<path d="M394 497 c-3 -8 -4 -34 -2 -58 l3 -44 55 0 55 0 0 55 0 55 -53 3
c-38 2 -54 -1 -58 -11z"/>
<path d="M514 286 c-3 -7 -4 -33 -2 -57 3 -38 6 -44 28 -47 20 -3 23 -1 13 9
-16 17 -17 81 -1 97 9 9 7 12 -10 12 -13 0 -25 -6 -28 -14z"/>
<path d="M334 257 c-3 -8 -4 -34 -2 -58 l3 -44 55 0 55 0 0 55 0 55 -53 3
c-38 2 -54 -1 -58 -11z"/>
</g>
</svg>
