<svg xmlns="http://www.w3.org/2000/svg" width="151" height="28" fill="none"><path fill="#152938" d="M0 21V1.16h5.32l.76 2.64c.453-.747 1.2-1.467 2.24-2.16C9.36.947 10.613.6 12.08.6c1.573 0 2.827.28 3.76.84.96.56 1.667 1.387 2.12 2.48a7.476 7.476 0 0 1 2.92-2.48A9.06 9.06 0 0 1 24.76.6c2.533 0 4.28.72 5.24 2.16.96 1.413 1.44 3.467 1.44 6.16V21h-6.08V10.44c0-.933-.053-1.787-.16-2.56-.107-.773-.373-1.387-.8-1.84-.427-.48-1.133-.72-2.12-.72-1.227 0-2.12.44-2.68 1.32-.56.853-.84 2.147-.84 3.88V21h-6.12V10.44c0-.933-.053-1.787-.16-2.56-.08-.773-.333-1.387-.76-1.84-.4-.48-1.08-.72-2.04-.72-1.253 0-2.173.453-2.76 1.36-.56.907-.84 2.227-.84 3.96V21H0Zm44.957.48c-2.133 0-4.026-.413-5.68-1.24a9.523 9.523 0 0 1-3.84-3.64c-.906-1.573-1.36-3.453-1.36-5.64 0-2.107.48-3.933 1.44-5.48a10.264 10.264 0 0 1 3.88-3.6c1.627-.853 3.4-1.28 5.32-1.28 2.187 0 4.053.52 5.6 1.56 1.574 1.013 2.76 2.427 3.56 4.24.8 1.787 1.133 3.853 1 6.2h-14.68c.107 1.387.613 2.427 1.52 3.12.934.693 1.96 1.04 3.08 1.04.934 0 1.734-.133 2.4-.4.694-.293 1.227-.653 1.6-1.08l4.84 1.76c-1.04 1.52-2.346 2.64-3.92 3.36-1.547.72-3.133 1.08-4.76 1.08ZM40.197 9h9.04c-.026-1.28-.467-2.24-1.32-2.88-.853-.667-1.867-1-3.04-1-1.147 0-2.173.307-3.08.92-.88.613-1.413 1.6-1.6 2.96Zm17.576 12V1.16h5.32l.76 2.64c.454-.747 1.2-1.467 2.24-2.16C67.133.947 68.387.6 69.853.6c1.574 0 2.827.28 3.76.84.96.56 1.667 1.387 2.12 2.48a7.477 7.477 0 0 1 2.92-2.48c1.2-.56 2.494-.84 3.88-.84 2.534 0 4.28.72 5.24 2.16.96 1.413 1.44 3.467 1.44 6.16V21h-6.08V10.44c0-.933-.053-1.787-.16-2.56-.106-.773-.373-1.387-.8-1.84-.426-.48-1.133-.72-2.12-.72-1.226 0-2.12.44-2.68 1.32-.56.853-.84 2.147-.84 3.88V21h-6.12V10.44c0-.933-.053-1.787-.16-2.56-.08-.773-.333-1.387-.76-1.84-.4-.48-1.08-.72-2.04-.72-1.253 0-2.173.453-2.76 1.36-.56.907-.84 2.227-.84 3.96V21h-6.08Zm44.598.48c-1.84 0-3.56-.373-5.16-1.12-1.6-.747-2.894-1.893-3.88-3.44-.987-1.573-1.48-3.547-1.48-5.92 0-2.4.493-4.36 1.48-5.88.986-1.547 2.28-2.68 3.88-3.4C98.81.973 100.53.6 102.37.6c1.813 0 3.52.373 5.12 1.12 1.6.72 2.893 1.853 3.88 3.4.986 1.52 1.48 3.48 1.48 5.88 0 2.373-.494 4.347-1.48 5.92-.987 1.547-2.28 2.693-3.88 3.44a11.96 11.96 0 0 1-5.12 1.12Zm0-4.72c1.226 0 2.24-.44 3.04-1.32.826-.88 1.24-2.36 1.24-4.44 0-2.107-.427-3.573-1.28-4.4-.827-.853-1.827-1.28-3-1.28-1.2 0-2.227.427-3.08 1.28-.827.827-1.24 2.293-1.24 4.4 0 2.08.413 3.56 1.24 4.44.826.88 1.853 1.32 3.08 1.32ZM115.82 21V1.16h4.8l1.08 3.64c.614-1.6 1.454-2.72 2.52-3.36 1.067-.64 2.36-.92 3.88-.84v6.08c-.32-.053-.6-.08-.84-.08a7.279 7.279 0 0 0-.8-.04c-1.466 0-2.6.347-3.4 1.04-.773.693-1.16 1.827-1.16 3.4v10h-6.08Zm16.538 6.44v-4.4h1.2c.906 0 1.586-.04 2.04-.12.453-.08.8-.28 1.04-.6.266-.293.506-.773.72-1.44l-7.6-19.72h6.52l3.88 12.4 3.8-12.4h6.52l-7.6 19.84c-.64 1.68-1.294 2.987-1.96 3.92-.64.933-1.467 1.587-2.48 1.96-1.014.373-2.387.56-4.12.56h-1.96Z"/></svg>